<svg xmlns="http://www.w3.org/2000/svg" viewBox="0 0 200 360" fill="none" aria-hidden="true">
  <defs>
    <linearGradient id="vpCarFill" x1="100" y1="24" x2="100" y2="336" gradientUnits="userSpaceOnUse">
      <stop offset="0%" stop-color="#4c4468"/>
      <stop offset="45%" stop-color="#2a2540"/>
      <stop offset="100%" stop-color="#14121f"/>
    </linearGradient>
    <linearGradient id="vpCarGlass" x1="100" y1="80" x2="100" y2="200" gradientUnits="userSpaceOnUse">
      <stop offset="0%" stop-color="#6b6288" stop-opacity="0.9"/>
      <stop offset="100%" stop-color="#322e48" stop-opacity="0.55"/>
    </linearGradient>
    <filter id="vpCarGlow" x="-20%" y="-20%" width="140%" height="140%">
      <feGaussianBlur stdDeviation="4" result="blur"/>
      <feMerge>
        <feMergeNode in="blur"/>
        <feMergeNode in="SourceGraphic"/>
      </feMerge>
    </filter>
  </defs>
  <ellipse cx="52" cy="78" rx="22" ry="28" fill="#0a0812" opacity="0.85"/>
  <ellipse cx="148" cy="78" rx="22" ry="28" fill="#0a0812" opacity="0.85"/>
  <ellipse cx="52" cy="282" rx="22" ry="28" fill="#0a0812" opacity="0.85"/>
  <ellipse cx="148" cy="282" rx="22" ry="28" fill="#0a0812" opacity="0.85"/>
  <path d="M68 48c6-18 28-28 64-28s58 10 64 28l10 28c4 12 6 52 6 88v48c0 36-2 76-6 88l-10 28c-6 18-28 28-64 28s-58-10-64-28l-10-28c-4-12-6-52-6-88v-48c0-36 2-76 6-88l10-28z" fill="url(#vpCarFill)" stroke="#a78bfa" stroke-width="2.2" stroke-opacity="0.35" filter="url(#vpCarGlow)"/>
  <path d="M78 72h44l8 22h-60l8-22z" fill="url(#vpCarGlass)" stroke="#c4b5fd" stroke-width="1.2" stroke-opacity="0.25"/>
  <rect x="88" y="108" width="24" height="72" rx="6" fill="#1e1b2e" stroke="#8b7cb8" stroke-width="1" stroke-opacity="0.35"/>
  <path d="M82 200h36l6 18H76l6-18z" fill="#252238" stroke="#7c6fad" stroke-width="1" stroke-opacity="0.3"/>
  <ellipse cx="100" cy="180" rx="38" ry="8" fill="#a78bfa" opacity="0.06"/>
</svg>
